<svg width="300" height="44" viewBox="0 0 300 44" fill="none" xmlns="http://www.w3.org/2000/svg">
<path d="M121.825 33.5887C112.864 41.6044 101.255 29.3228 109.141 20.6505C117.889 12.4446 129.922 25.0613 121.825 33.5887ZM124.39 11.154V14.9127C115.187 4.05311 97.587 13.4817 98.3661 27.0766C97.546 40.7349 115.183 50.0955 124.39 39.2495V43.0082H132.66V11.154H124.39Z" fill="#0066FF"/>
<path d="M83.855 33.5887C74.8932 41.6044 63.2842 29.3228 71.1708 20.6505C79.9185 12.4446 91.9511 25.0613 83.855 33.5887ZM86.4201 2.26431V14.9172C77.2168 4.05764 59.6166 13.4862 60.3957 27.0811C59.5756 40.7394 77.2122 50.1 86.4201 39.254V43.0128H94.6893V2.26431H86.4201Z" fill="#0066FF"/>
<path d="M152.971 19.0519V11.154H145.731V2.26431H137.457V32.3116C137.457 36.727 138.651 39.7703 141.016 41.4504C143.389 43.1305 147.371 43.6468 152.975 43.0128V35.5587C149.823 35.5994 145.686 36.3783 145.736 32.3071V19.0473H152.975L152.971 19.0519Z" fill="#0066FF"/>
<path d="M178.353 33.5887C169.395 41.5998 157.773 29.3363 165.659 20.6505C174.412 12.4446 186.449 25.0613 178.353 33.5887ZM180.918 11.154V14.9127C171.715 4.05765 154.114 13.4772 154.893 27.0766C154.069 40.7394 171.705 50.091 180.918 39.2495V43.0082H189.187V11.154H180.918Z" fill="#0066FF"/>
<path d="M216.369 33.5887C207.448 41.5772 195.684 29.3907 203.607 20.6505C212.583 12.5261 224.246 24.8304 216.369 33.5887ZM218.87 2.26431V14.9172C209.726 4.03047 192.035 13.5134 192.846 27.0811C191.989 40.7122 209.717 50.1272 218.87 39.254V43.0128H227.14V2.26431H218.87Z" fill="#0066FF"/>
<path d="M269.06 11.1585L261.237 33.4574L253.482 11.1585H244.384L256.553 43.0128H265.98L278.163 11.1585H269.06Z" fill="#0066FF"/>
<path d="M240.857 11.1585H232.588V43.0173H240.857V11.1585Z" fill="#0066FF"/>
<path d="M144.46 42.6278C144.46 42.6278 144.492 42.6369 144.51 42.6459V42.6278H144.46Z" fill="#0066FF"/>
<path d="M241.928 2.26431C241.928 5.13545 239.582 7.46768 236.684 7.46768C233.786 7.46768 231.449 5.13545 231.449 2.26431H241.928Z" fill="#0066FF"/>
<path d="M292.833 12.0823C291.088 13.1284 289.844 14.641 289.116 16.6381V11.1585H280.851V43.0173H289.116V27.7921C289.116 24.7307 290.1 22.5434 292.063 21.2256C294.073 19.867 296.228 19.6949 298.856 19.6949V11.1585C296.597 11.1585 294.587 11.0453 292.833 12.0778" fill="#0066FF"/>
<path d="M52.395 21.5109C52.395 33.3895 42.7042 43.0218 30.7536 43.0218H9.11217V33.9646H30.7536C37.6743 33.9646 43.2828 28.3899 43.2828 21.5109C43.2828 14.6319 37.6743 9.05723 30.7536 9.05723H9.11217V0H30.7536C42.7042 0 52.395 9.63236 52.395 21.5109Z" fill="#0066FF"/>
<path d="M40.941 20.3788H4.55609V11.3215H30.7536C36.0026 11.3213 40.3683 15.2522 40.941 20.3788Z" fill="#0066FF"/>
<path d="M40.941 22.6431C40.3682 27.7697 36.0027 31.7005 30.7536 31.7003H0V22.6431H40.941Z" fill="#0066FF"/>
</svg>
